HIERARCHY
ROOT Hips
{
 OFFSET 0.000000 0.000000 0.000000
 CHANNELS 6 Xposition Yposition Zposition Yrotation Xrotation Zrotation
 JOINT Chest
 {
  OFFSET 0.000000 9.588913 -0.003946
  CHANNELS 3 Yrotation Xrotation Zrotation
  JOINT Chest2
  {
   OFFSET 0.000000 9.541882 0.008053
   CHANNELS 3 Yrotation Xrotation Zrotation
   JOINT Chest3
   {
    OFFSET 0.000000 9.501360 0.000000
    CHANNELS 3 Yrotation Xrotation Zrotation
    JOINT Chest4
    {
     OFFSET 0.000000 9.491660 0.000000
     CHANNELS 3 Yrotation Xrotation Zrotation
     JOINT Neck
     {
      OFFSET 0.000000 14.331917 0.000000
      CHANNELS 3 Yrotation Xrotation Zrotation
      JOINT Head
      {
       OFFSET 0.000000 8.884799 0.017034
       CHANNELS 3 Yrotation Xrotation Zrotation
       End Site
       {
        OFFSET 0.000000 16.896195 0.008993
       }
      }
     }
     JOINT RightCollar
     {
      OFFSET -2.923010 9.499495 0.000000
      CHANNELS 3 Yrotation Xrotation Zrotation
      JOINT RightShoulder
      {
       OFFSET -13.795216 0.000000 0.000000
       CHANNELS 3 Yrotation Xrotation Zrotation
       JOINT RightElbow
       {
        OFFSET -30.272209 0.000000 0.000000
        CHANNELS 3 Yrotation Xrotation Zrotation
        JOINT RightWrist
        {
         OFFSET -24.478199 0.000000 0.000000
         CHANNELS 3 Yrotation Xrotation Zrotation
         End Site
         {
          OFFSET -18.090752 0.000000 0.000000
         }
        }
       }
      }
     }
     JOINT LeftCollar
     {
      OFFSET 2.923010 9.499495 0.000000
      CHANNELS 3 Yrotation Xrotation Zrotation
      JOINT LeftShoulder
      {
       OFFSET 13.795216 0.000000 0.000000
       CHANNELS 3 Yrotation Xrotation Zrotation
       JOINT LeftElbow
       {
        OFFSET 30.272209 0.000000 0.000000
        CHANNELS 3 Yrotation Xrotation Zrotation
        JOINT LeftWrist
        {
         OFFSET 24.478199 0.000000 0.000000
         CHANNELS 3 Yrotation Xrotation Zrotation
         End Site
         {
          OFFSET 18.090752 0.000000 0.000000
         }
        }
       }
      }
     }
    }
   }
  }
 }
 JOINT RightHip
 {
  OFFSET -7.826875 0.019532 0.001973
  CHANNELS 3 Yrotation Xrotation Zrotation
  JOINT RightKnee
  {
   OFFSET 0.000000 -40.546152 -0.001885
   CHANNELS 3 Yrotation Xrotation Zrotation
   JOINT RightAnkle
   {
    OFFSET 0.000000 -39.417092 -0.003189
    CHANNELS 3 Yrotation Xrotation Zrotation
    JOINT RightToe
    {
     OFFSET 0.000000 -7.579396 17.243563
     CHANNELS 3 Yrotation Xrotation Zrotation
     End Site
     {
      OFFSET 0.000000 -1.500329 6.694466
     }
    }
   }
  }
 }
 JOINT LeftHip
 {
  OFFSET 7.826875 0.019532 0.001973
  CHANNELS 3 Yrotation Xrotation Zrotation
  JOINT LeftKnee
  {
   OFFSET 0.000000 -40.546152 -0.001885
   CHANNELS 3 Yrotation Xrotation Zrotation
   JOINT LeftAnkle
   {
    OFFSET 0.000000 -39.417092 -0.003189
    CHANNELS 3 Yrotation Xrotation Zrotation
    JOINT LeftToe
    {
     OFFSET 0.000000 -7.579396 17.243563
     CHANNELS 3 Yrotation Xrotation Zrotation
     End Site
     {
      OFFSET 0.000000 -1.500329 6.694466
     }
    }
   }
  }
 }
}
MOTION
Frames: 13
Frame Time: 0.008333
0.000000 87.345680 0.000000 0.000000 -5.767889 0.000000 0.000000 11.653876 0.000000 0.000000 -5.885988 0.000000 0.000000 -0.000000 0.000000 0.000000 -0.000000 0.000000 0.000000 12.528808 0.000000 0.000000 0.711711 0.000000 0.000000 -0.000000 0.000000 0.000000 -0.000000 0.000000 2.309063 -0.000000 0.000000 -2.309063 -0.000000 -0.000000 0.000000 -0.000000 0.000000 0.000000 0.000000 0.000000 -2.309063 0.000000 0.000000 2.309063 -0.000000 0.000000 0.000000 8.520374 0.000000 0.000000 1.905768 0.000000 -0.000000 -4.658254 0.000000 0.000000 -0.000000 0.000000 0.000000 8.520374 0.000000 0.000000 1.905768 0.000000 -0.000000 -4.658254 0.000000 0.000000 -0.000000 0.000000
3.641087 89.046504 2.915861 41.947591 -5.052908 0.487481 -1.449033 6.737256 0.750620 -0.830896 3.838698 0.514569 -1.033797 4.799496 0.634841 -0.830896 3.838698 0.514569 -3.247603 14.371126 -3.039395 -2.735517 -10.586268 -2.468078 5.182697 -0.033320 -1.392194 5.611651 -5.232914 84.112398 3.370775 -0.113183 2.509295 -1.135335 -0.177706 -3.040404 1.749966 -0.368469 -5.703071 -1.056020 -5.207370 -85.400447 -2.022399 2.480380 2.542434 -1.843136 -3.913609 1.611815 1.781896 1.706729 -3.804285 2.078021 7.339399 3.188098 -0.240309 -4.354761 0.357896 -0.351028 0.150593 -0.150957 0.682336 2.598404 -2.620552 0.955544 6.345155 1.729284 -0.598524 -4.265312 0.453352 0.156449 0.153710 0.091819
3.642519 89.044204 2.825237 41.873661 -4.969053 0.515480 -1.442839 6.806569 0.745638 -0.829166 3.885528 0.518807 -1.031535 4.858040 0.640062 -0.829165 3.885528 0.518807 -3.246664 14.304971 -3.035054 -2.735481 -10.655496 -2.463667 5.258987 -0.055816 -1.396515 5.682275 -5.364846 84.019556 3.267694 -0.185937 2.515394 -1.123669 -0.173874 -3.080188 1.658024 -0.417563 -5.805476 -1.159969 -5.289072 -85.316322 -1.966932 2.408447 2.686580 -1.816336 -3.917795 1.599408 1.714612 1.500835 -3.935297 2.192609 7.458356 3.283750 -0.194796 -4.353827 0.367695 -0.360663 0.133642 -0.155250 0.742632 2.534105 -2.667894 0.937629 6.226838 1.691609 -0.576573 -4.178152 0.522890 0.148639 0.153881 0.076872
3.645036 89.041856 2.725960 41.815177 -4.873898 0.540850 -1.448493 6.874961 0.739604 -0.828096 3.922929 0.521138 -1.030131 4.904795 0.642911 -0.828096 3.922929 0.521138 -3.250154 14.249573 -3.031527 -2.740021 -10.713349 -2.459181 5.327825 -0.087206 -1.398203 5.724314 -5.485068 83.947126 3.162290 -0.264608 2.521871 -1.099139 -0.183843 -3.124342 1.570525 -0.472086 -5.890130 -1.253816 -5.355693 -85.240152 -1.904572 2.334752 2.826075 -1.796841 -3.927352 1.589722 1.613644 1.276025 -4.074900 2.326082 7.586910 3.394631 -0.159858 -4.355840 0.369499 -0.360438 0.117548 -0.155759 0.781008 2.441009 -2.721052 0.922332 6.131085 1.660637 -0.551541 -4.094753 0.588139 0.144675 0.152641 0.067887
3.648932 89.039463 2.623061 41.771175 -4.768935 0.568286 -1.463214 6.940187 0.732747 -0.827485 3.951778 0.521158 -1.029334 4.940855 0.642882 -0.827485 3.951778 0.521158 -3.260518 14.205311 -3.033118 -2.750822 -10.759335 -2.458684 5.382715 -0.124785 -1.402965 5.739334 -5.590360 83.901641 3.059548 -0.353581 2.529380 -1.064071 -0.209850 -3.159703 1.485668 -0.525623 -5.961436 -1.337137 -5.415815 -85.168536 -1.838134 2.267000 2.958567 -1.784775 -3.942398 1.580974 1.489507 1.036947 -4.223832 2.472264 7.724751 3.519118 -0.136195 -4.364006 0.361696 -0.350833 0.103316 -0.152309 0.806001 2.324188 -2.781731 0.896223 6.056984 1.634724 -0.517937 -4.014899 0.646139 0.142934 0.148043 0.065053
3.654366 89.036922 2.521257 41.740625 -4.659100 0.602867 -1.484451 6.999365 0.725277 -0.828187 3.973611 0.518248 -1.030220 4.968140 0.639189 -0.828187 3.973611 0.518248 -3.277445 14.171999 -3.042167 -2.767045 -10.793634 -2.464740 5.422995 -0.162976 -1.413198 5.725809 -5.683520 83.881801 2.963549 -0.453460 2.540276 -1.029484 -0.248305 -3.170508 1.405707 -0.571534 -6.024760 -1.413151 -5.474721 -85.098249 -1.770162 2.206878 3.083358 -1.780319 -3.958985 1.571969 1.355321 0.789445 -4.381068 2.623240 7.875768 3.651528 -0.126307 -4.383241 0.345320 -0.333226 0.091616 -0.145234 0.820302 2.192451 -2.851554 0.851192 6.002247 1.610230 -0.469950 -3.938073 0.696725 0.142108 0.138689 0.067178
3.660475 89.033992 2.424289 41.722956 -4.549780 0.645063 -1.509175 7.048627 0.719652 -0.832513 3.990897 0.512724 -1.035671 4.989741 0.632197 -0.832513 3.990897 0.512724 -3.298543 14.147250 -3.060280 -2.785787 -10.818767 -2.479580 5.454699 -0.196693 -1.429812 5.684087 -5.769655 83.881608 2.876624 -0.562747 2.559150 -1.002108 -0.284136 -3.152866 1.332883 -0.608490 -6.085802 -1.479157 -5.534921 -85.029824 -1.700358 2.160076 3.200927 -1.788312 -3.975163 1.564646 1.231742 0.538599 -4.540899 2.761782 8.044318 3.785910 -0.132637 -4.414762 0.322140 -0.309051 0.080856 -0.135497 0.811466 2.053921 -2.928675 0.797222 5.963560 1.586763 -0.408262 -3.864982 0.737279 0.141103 0.125500 0.073477
3.662971 89.030212 2.335080 41.707349 -4.437800 0.678608 -1.522630 7.076379 0.733014 -0.841428 4.006685 0.505152 -1.046887 5.009470 0.622594 -0.841427 4.006685 0.505151 -3.323016 14.126647 -3.086970 -2.806307 -10.839370 -2.502869 5.481581 -0.222189 -1.447136 5.624699 -5.851359 83.890414 2.799915 -0.675857 2.586855 -0.982638 -0.313382 -3.116546 1.268497 -0.634748 -6.146344 -1.534745 -5.598613 -84.965474 -1.630959 2.128955 3.311483 -1.810486 -3.994157 1.565043 1.139319 0.281951 -4.683953 2.883092 8.229231 3.919400 -0.177748 -4.448135 0.285779 -0.259730 0.061438 -0.114231 0.782195 1.905815 -2.994451 0.743877 5.939256 1.569571 -0.333458 -3.792120 0.763299 0.138199 0.105607 0.080990
3.667055 89.025644 2.253716 41.706495 -4.351855 0.733359 -1.542393 7.104986 0.731967 -0.853689 4.023575 0.496370 -1.062302 5.030578 0.611440 -0.853689 4.023574 0.496370 -3.352494 14.105389 -3.121310 -2.830568 -10.860439 -2.533282 5.504874 -0.238232 -1.461254 5.571691 -5.927208 83.898681 2.731842 -0.795626 2.620267 -0.970711 -0.343260 -3.069425 1.213432 -0.648914 -6.209371 -1.588534 -5.667962 -84.902275 -1.563219 2.102673 3.413453 -1.844590 -4.014612 1.573512 1.061815 0.049901 -4.839676 2.997004 8.425062 4.049083 -0.211902 -4.497895 0.256181 -0.236691 0.051164 -0.103374 0.719266 1.777392 -3.086942 0.693124 5.933603 1.564598 -0.249462 -3.734751 0.778840 0.135399 0.089608 0.088007
3.668750 89.019957 2.181190 41.711573 -4.290717 0.791378 -1.558723 7.132534 0.732831 -0.867382 4.043814 0.487933 -1.079501 5.055874 0.600691 -0.867382 4.043813 0.487932 -3.389545 14.078487 -3.163244 -2.861360 -10.887136 -2.570232 5.525017 -0.246398 -1.474907 5.541030 -5.998554 83.902781 2.666982 -0.924628 2.655996 -0.961322 -0.367954 -3.013106 1.162634 -0.656014 -6.280297 -1.648154 -5.744212 -84.835021 -1.495392 2.069196 3.508149 -1.889019 -4.034041 1.584867 1.007272 -0.156865 -4.988802 3.105151 8.627839 4.171240 -0.255427 -4.553824 0.227871 -0.217134 0.041779 -0.093244 0.633798 1.665952 -3.183956 0.648509 5.947240 1.572171 -0.160354 -3.688275 0.782614 0.131360 0.073467 0.092843
3.667155 89.013087 2.117083 41.724814 -4.259118 0.849027 -1.573316 7.165231 0.735944 -0.881388 4.068477 0.481204 -1.097070 5.086704 0.592064 -0.881388 4.068476 0.481203 -3.435303 14.042793 -3.211837 -2.900130 -10.922740 -2.612503 5.539378 -0.247359 -1.487670 5.533715 -6.068543 83.901685 2.601731 -1.056486 2.684761 -0.945847 -0.379927 -2.945483 1.110249 -0.660464 -6.361156 -1.714373 -5.828885 -84.764027 -1.425275 2.020425 3.596440 -1.941157 -4.055968 1.600615 0.966082 -0.332104 -5.125524 3.209068 8.834955 4.282309 -0.307379 -4.616616 0.201571 -0.200691 0.034820 -0.084079 0.529570 1.574028 -3.282308 0.613853 5.983343 1.592863 -0.070942 -3.655021 0.776853 0.126179 0.058397 0.094514
3.661443 89.005081 2.060311 41.748450 -4.256834 0.902284 -1.587155 7.205374 0.741695 -0.895518 4.097824 0.477369 -1.114759 5.123396 0.587043 -0.895518 4.097824 0.477368 -3.489313 13.997164 -3.266065 -2.946647 -10.968476 -2.659127 5.548630 -0.240619 -1.497993 5.540524 -6.138965 83.895957 2.535732 -1.183930 2.702361 -0.920076 -0.383800 -2.867828 1.053718 -0.663768 -6.451005 -1.781592 -5.924243 -84.694506 -1.350906 1.959279 3.677838 -2.001829 -4.080310 1.623640 0.924508 -0.474411 -5.245720 3.311601 9.040822 4.380904 -0.363284 -4.682961 0.177998 -0.188007 0.030405 -0.076641 0.407521 1.500119 -3.378572 0.591094 6.042436 1.626483 0.018034 -3.635431 0.763461 0.119982 0.045574 0.092689
3.651710 88.996136 2.009590 41.782224 -4.283205 0.949673 -1.599615 7.254129 0.749779 -0.908885 4.132062 0.476915 -1.131451 5.166208 0.586246 -0.908886 4.132061 0.476914 -3.552579 13.941585 -3.324613 -3.002311 -11.024370 -2.708509 5.556563 -0.227114 -1.505856 5.548734 -6.211426 83.887161 2.471046 -1.307497 2.714164 -0.889183 -0.380789 -2.789072 0.991774 -0.668089 -6.547011 -1.848238 -6.031070 -84.631080 -1.268345 1.889806 3.755089 -2.077283 -4.106157 1.649348 0.880133 -0.582409 -5.351297 3.408844 9.240254 4.470013 -0.415693 -4.749714 0.156956 -0.179605 0.028407 -0.071543 0.273613 1.445061 -3.470582 0.583210 6.120845 1.671793 0.098220 -3.627596 0.743946 0.112879 0.035442 0.087896
